<svg xmlns="http://www.w3.org/2000/svg" viewBox="0 0 128 216"><defs><style>.cls-1{fill:none;stroke:#000;stroke-miterlimit:10;}</style></defs><title>bath_1</title><g id="Layer_2" data-name="Layer 2"><g id="Layer_1-2" data-name="Layer 1"><path class="cls-1" d="M20.52.5H105A5.48,5.48,0,0,1,110.5,6V62h-95L15,6A5.48,5.48,0,0,1,20.52.5Z"/><line class="cls-1" x1="5.5" y1="62" x2="15.5" y2="62"/><line class="cls-1" x1="110.5" y1="62" x2="119.5" y2="62"/><path class="cls-1" d="M1.77,107A5.89,5.89,0,0,0,.5,110.5C.5,120.16,28.93,128,64,128s63.5-7.84,63.5-17.5a5.89,5.89,0,0,0-1.27-3.5Z"/><polyline class="cls-1" points="4.76 116.81 4.76 208 121.5 208 121.5 117.93"/><line class="cls-1" x1="63.5" y1="128" x2="63.5" y2="208"/><line class="cls-1" x1="47.5" y1="155" x2="47.5" y2="168"/><line class="cls-1" x1="79.5" y1="155" x2="79.5" y2="168"/><line class="cls-1" x1="13.38" y1="208" x2="13.38" y2="216"/><line class="cls-1" x1="112.85" y1="208" x2="112.85" y2="216"/><path class="cls-1" d="M63.13,107V83l.22-.72c3-9.89,17.05-9.82,20,.1l.18.62"/><line class="cls-1" x1="97.5" y1="38" x2="85.5" y2="50"/><line class="cls-1" x1="41.5" y1="13" x2="29.5" y2="25"/></g></g></svg>