<svg xmlns="http://www.w3.org/2000/svg" viewBox="0 0 212 160.96"><defs><style>.cls-1,.cls-2{fill:none;}.cls-1{stroke:#000;stroke-miterlimit:10;}</style></defs><title>bed</title><g id="Layer_2" data-name="Layer 2"><g id="Layer_1-2" data-name="Layer 1"><polyline class="cls-1" points="6.5 153.96 207.5 153.96 207.5 160.96"/><path class="cls-1" d="M207.5,154h0a4,4,0,0,0,4-4V110.19a8.47,8.47,0,0,0-1.1-4.17L183.94,59.26a8.49,8.49,0,0,0-7.39-4.3h-142"/><path class="cls-1" d="M175.77,55,166,38.46V10.52A10,10,0,0,0,155.94.5L52.85.92A8.39,8.39,0,0,0,44.5,9.31V39l-8,16H35.33a6.63,6.63,0,0,0-5.74,3.32L1.87,106.58A10.23,10.23,0,0,0,.5,111.7v37.12A5.14,5.14,0,0,0,5.64,154H6.5v7"/><path class="cls-1" d="M60.57,55l0-24.22A10.76,10.76,0,0,1,71.28,20h70.13A10.09,10.09,0,0,1,151.5,30.05V55"/><line class="cls-2" x1="109.06" y1="19.96" x2="109.06" y2="54.96"/><line class="cls-1" x1="108.69" y1="19.96" x2="108.69" y2="54.96"/><line class="cls-1" x1="151.5" y1="39.09" x2="166.5" y2="39.09"/><line class="cls-1" x1="44.5" y1="38.96" x2="60.5" y2="38.96"/></g></g></svg>