<svg xmlns="http://www.w3.org/2000/svg" viewBox="0 0 107 107"><defs><style>.cls-1{fill:#686969;}.cls-2{fill:#fff;}</style></defs><title>blog</title><g id="Layer_2" data-name="Layer 2"><g id="Layer_1-2" data-name="Layer 1"><circle class="cls-1" cx="53.5" cy="53.5" r="53.5"/><rect class="cls-2" x="23" y="32" width="61" height="42" rx="11.73"/><path class="cls-2" d="M57.13,81,65.26,67a1.31,1.31,0,0,0-1.13-2H47.87a1.31,1.31,0,0,0-1.13,2L54.87,81A1.3,1.3,0,0,0,57.13,81Z"/><path class="cls-1" d="M35.88,47a5.18,5.18,0,0,0-3.32,1.54V42.36H28.64v16.3h4V57.38a3.74,3.74,0,0,0,3.28,1.69A5.77,5.77,0,0,0,41.39,53S41.19,47,35.88,47ZM35,55.63a2.52,2.52,0,1,1,2.51-2.52A2.51,2.51,0,0,1,35,55.63Z"/><path class="cls-1" d="M42.65,42v3.77s1.78-.08,1.78,3.24v9.65H48.2V48.12S48.36,42,42.65,42Z"/><path class="cls-1" d="M57.42,47.08s-6.46,0-6.46,6c0,0-.21,6,6.46,6,0,0,6.61,0,6.61-6C64,53.11,64.25,47.08,57.42,47.08Zm0,8.55a2.52,2.52,0,1,1,2.51-2.52A2.51,2.51,0,0,1,57.42,55.63Z"/><path class="cls-1" d="M74.82,47.47v1.1a4.26,4.26,0,0,0-3.28-1.49s-5.53-.24-5.53,6c0,0-.06,5.8,5.38,5.8a4.46,4.46,0,0,0,3.43-1.49v.92s.28,2.85-2.49,2.85h-.94v3.47h1.52a5.68,5.68,0,0,0,5.71-6.11v-11Zm-2.34,8.16A2.52,2.52,0,1,1,75,53.11,2.52,2.52,0,0,1,72.48,55.63Z"/></g></g></svg>