<svg xmlns="http://www.w3.org/2000/svg" viewBox="0 0 192.97 204"><defs><style>.cls-1{fill:none;stroke:#000;stroke-miterlimit:10;}</style></defs><title>bookcase</title><g id="Layer_2" data-name="Layer 2"><g id="Layer_1-2" data-name="Layer 1"><path class="cls-1" d="M10.35.5H183A9.48,9.48,0,0,1,192.47,10V184.83A10.17,10.17,0,0,1,182.3,195H13.48a13,13,0,0,1-13-13L.94,9.89A9.42,9.42,0,0,1,10.35.5Z"/><line class="cls-1" x1="15.47" y1="195" x2="15.47" y2="204"/><line class="cls-1" x1="178.24" y1="195" x2="178.24" y2="204"/><line class="cls-1" x1="128.72" y1="0.5" x2="128.72" y2="195"/><line class="cls-1" x1="64.81" y1="0.5" x2="64.81" y2="195"/><line class="cls-1" x1="0.79" y1="67.37" x2="192.47" y2="67.37"/><line class="cls-1" x1="0.63" y1="130.78" x2="192.47" y2="130.78"/><line class="cls-1" x1="164.47" y1="34" x2="164.47" y2="67.37"/><line class="cls-1" x1="175.97" y1="34.5" x2="175.97" y2="67.37"/><line class="cls-1" x1="27.97" y1="96.5" x2="15.47" y2="130.78"/><line class="cls-1" x1="37.97" y1="96.5" x2="37.97" y2="130.78"/><line class="cls-1" x1="50.97" y1="96.5" x2="50.97" y2="130.78"/><rect class="cls-1" x="145.97" y="96.5" width="28" height="34.28" rx="4.79"/></g></g></svg>