<svg xmlns="http://www.w3.org/2000/svg" viewBox="0 0 107 107"><defs><style>.cls-1{fill:#686969;}.cls-2{fill:#fff;}</style></defs><title>insta</title><g id="Layer_2" data-name="Layer 2"><g id="Layer_1-2" data-name="Layer 1"><circle class="cls-1" cx="53.5" cy="53.5" r="53.5"/><path class="cls-2" d="M66.22,21.36H41.59A19.78,19.78,0,0,0,21.81,41.14V65.77A19.79,19.79,0,0,0,41.59,85.55H66.22A19.78,19.78,0,0,0,86,65.77V41.14A19.77,19.77,0,0,0,66.22,21.36ZM79.84,63.41a16,16,0,0,1-16,16H44a16,16,0,0,1-16-16V43.5a16,16,0,0,1,16-16H63.86a16,16,0,0,1,16,16Z"/><path class="cls-2" d="M54.77,36.66a16.91,16.91,0,1,0,16.9,16.9A16.9,16.9,0,0,0,54.77,36.66Zm0,27.08A10.18,10.18,0,1,1,64.94,53.56,10.18,10.18,0,0,1,54.77,63.74Z"/><path class="cls-2" d="M74.8,36.39a4.3,4.3,0,1,1-4.3-4.3A4.3,4.3,0,0,1,74.8,36.39Z"/></g></g></svg>