<svg xmlns="http://www.w3.org/2000/svg" viewBox="0 0 200.71 209"><defs><style>.cls-1{fill:none;stroke:#000;stroke-miterlimit:10;}</style></defs><title>kitchen</title><g id="Layer_2" data-name="Layer 2"><g id="Layer_1-2" data-name="Layer 1"><path class="cls-1" d="M25.94,1H37.06a7.15,7.15,0,0,1,7.15,7.14V40.5l17,17h-60l18-18L18.8,8.24A7.14,7.14,0,0,1,25.94,1Z"/><path class="cls-1" d="M63.21,7.53v50h137v-50a7,7,0,0,0-7-7H70.23A7,7,0,0,0,63.21,7.53Z"/><line class="cls-1" x1="131.21" y1="0.5" x2="131.21" y2="57.5"/><line class="cls-1" x1="90.71" y1="42" x2="104.21" y2="42"/><line class="cls-1" x1="157.88" y1="41.57" x2="171.38" y2="41.57"/><rect class="cls-1" x="1.21" y="127.5" width="199" height="81" rx="6.75"/><line class="cls-1" x1="63.21" y1="127.5" x2="63.21" y2="208.5"/><line class="cls-1" x1="132.6" y1="127.5" x2="132.6" y2="208.5"/><line class="cls-1" x1="63.21" y1="160.42" x2="132.6" y2="160.42"/><line class="cls-1" x1="91.21" y1="175.5" x2="105.21" y2="175.5"/><line class="cls-1" x1="91.71" y1="144" x2="105.71" y2="144"/><line class="cls-1" x1="145.71" y1="160" x2="145.71" y2="175"/><line class="cls-1" x1="8.71" y1="147.5" x2="55.71" y2="147.5"/><path class="cls-1" d="M154.71,100l.31-1.35c2.28-9.71,16.09-9.71,18.37,0l.32,1.35v27.5"/></g></g></svg>