<svg xmlns="http://www.w3.org/2000/svg" viewBox="0 0 50.2 42"><title>m_menu_1</title><g id="Layer_2" data-name="Layer 2"><g id="Layer_1-2" data-name="Layer 1"><g id="Layer_2-2" data-name="Layer 2"><g id="Layer_1-2-2" data-name="Layer 1-2"><path d="M.56,0H38.92c.31,0,.56.45.56,1h0c0,.55-.25,1-.56,1H.56C.25,2,0,1.55,0,1H0C0,.45.25,0,.56,0Z"/><path d="M.53,20H49.67c.29,0,.53.42.53.94v.12c0,.52-.24.94-.53.94H.53C.24,22,0,21.58,0,21.06v-.12C0,20.42.24,20,.53,20Z"/><path d="M.52,40H32.76c.29,0,.52.41.52.92v.16c0,.51-.23.92-.52.92H.52C.23,42,0,41.59,0,41.08v-.16C0,40.41.23,40,.52,40Z"/></g></g></g></g></svg>