<svg xmlns="http://www.w3.org/2000/svg" viewBox="0 0 201 98.5"><defs><style>.cls-1{fill:none;stroke:#000;stroke-miterlimit:10;}</style></defs><title>sofa</title><g id="Layer_2" data-name="Layer 2"><g id="Layer_1-2" data-name="Layer 1"><polyline class="cls-1" points="18.5 89.5 182.5 89.5 182.5 98.5"/><path class="cls-1" d="M182.5,89.5h12.74a5.25,5.25,0,0,0,5.26-5.26V8.56a4.06,4.06,0,0,0-4.06-4.06h-13a4,4,0,0,0-4,4v5h-53V4.8A4.31,4.31,0,0,0,122.2.5H22.76A5.27,5.27,0,0,0,17.5,5.76V13.5H5.73A5.23,5.23,0,0,0,.5,18.73V85.27A4.23,4.23,0,0,0,4.73,89.5H18.5v9"/><polyline class="cls-1" points="17.5 13.5 17.5 48.5 0.5 48.5"/><polyline class="cls-1" points="17.5 48.5 73.5 48.5 73.5 0.5"/><polyline class="cls-1" points="73.5 48.5 126.5 48.5 126.5 13.5"/><polyline class="cls-1" points="126.5 48.5 179.5 48.5 179.5 13.5"/></g></g></svg>