<svg xmlns="http://www.w3.org/2000/svg" viewBox="0 0 107 107"><defs><style>.cls-1{fill:#686969;}.cls-2{fill:#fff;}</style></defs><title>youtube</title><g id="Layer_2" data-name="Layer 2"><g id="Layer_1-2" data-name="Layer 1"><circle class="cls-1" cx="53.5" cy="53.5" r="53.5"/><path class="cls-2" d="M83.2,39.73a7.61,7.61,0,0,0-5.36-5.38c-4.72-1.28-23.65-1.28-23.65-1.28s-18.93,0-23.65,1.28a7.58,7.58,0,0,0-5.35,5.38c-1.27,4.75-1.27,14.67-1.27,14.67s0,9.91,1.27,14.66a7.57,7.57,0,0,0,5.35,5.39c4.72,1.27,23.65,1.27,23.65,1.27s18.93,0,23.65-1.27a7.6,7.6,0,0,0,5.36-5.39c1.26-4.75,1.26-14.66,1.26-14.66S84.46,44.48,83.2,39.73Z"/><polygon class="cls-1" points="48 63.4 48 45.4 63.82 54.4 48 63.4"/></g></g></svg>