<?xml version="1.0" standalone="no"?>
<!DOCTYPE svg PUBLIC "-//W3C//DTD SVG 20010904//EN"
 "http://www.w3.org/TR/2001/REC-SVG-20010904/DTD/svg10.dtd">
<svg version="1.0" xmlns="http://www.w3.org/2000/svg"
 width="260.000000pt" height="260.000000pt" viewBox="0 0 260.000000 260.000000"
 preserveAspectRatio="xMidYMid meet">
<metadata>
Created by potrace 1.14, written by Peter Selinger 2001-2017
</metadata>
<g transform="translate(0.000000,260.000000) scale(0.100000,-0.100000)"
fill="#000000" stroke="none">
<path d="M70 2582 c0 -23 -30 -52 -53 -52 -16 0 -17 -87 -17 -1230 l0 -1230
24 0 c29 0 56 -24 56 -51 0 -19 22 -19 1220 -19 1198 0 1220 0 1220 19 0 27
27 51 56 51 l24 0 0 1228 0 1228 -32 9 c-26 8 -34 16 -36 38 l-3 27 -1230 0
c-1188 0 -1229 -1 -1229 -18z m1820 -627 c39 -20 70 -62 70 -97 0 -39 -43
-104 -82 -124 -30 -16 -74 -17 -423 -16 -230 1 -402 -2 -420 -8 -37 -12 -80
-64 -94 -115 -15 -55 6 -98 61 -126 43 -23 46 -23 439 -20 452 3 467 1 494
-60 15 -33 16 -44 5 -91 -16 -66 -54 -104 -113 -113 -23 -4 -188 -4 -367 0
-422 7 -394 8 -439 -15 -74 -37 -100 -102 -81 -195 12 -59 49 -107 93 -124 12
-5 185 -6 382 -3 429 6 466 3 512 -43 26 -26 33 -41 33 -72 0 -49 -42 -99 -91
-108 -19 -3 -279 -5 -579 -3 -522 3 -546 4 -578 23 -18 11 -42 39 -54 63 -20
43 -21 53 -19 575 1 291 4 542 8 556 18 78 60 113 148 122 33 3 286 7 563 7
427 2 507 0 532 -13z"/>
</g>
</svg>
